<svg width="19" height="19" viewBox="0 0 19 19" fill="none" xmlns="http://www.w3.org/2000/svg">
<path fill-rule="evenodd" clip-rule="evenodd" d="M3.49881 0.212451L1.0715 2.63487C-0.197788 3.9045 -0.246325 5.92911 0.44051 8.00833C1.12714 10.0878 2.56589 12.3409 4.6099 14.3857C6.65392 16.4303 8.91202 17.8747 10.9908 18.5615C13.0697 19.2483 15.0884 19.1945 16.3576 17.9248L18.7849 15.5024C18.9227 15.3654 19 15.179 19 14.9846C19 14.7901 18.9227 14.6037 18.7849 14.4667L14.9122 10.5929C14.7752 10.4551 14.5888 10.3778 14.3943 10.3778C14.2 10.3778 14.0137 10.4551 13.8767 10.5929L11.5466 12.9291C11.5071 12.9686 11.4388 13.0111 11.2392 13.0153C11.0396 13.0198 10.7322 12.9648 10.3762 12.8265C9.66449 12.55 8.76544 11.9543 7.93284 11.1217C7.10023 10.2889 6.50473 9.38426 6.22848 8.67234C6.09026 8.31629 6.03521 8.01429 6.0397 7.8144C6.04418 7.61476 6.08638 7.54644 6.12593 7.50688L8.45601 5.17619V5.17599C8.59362 5.03895 8.67109 4.85256 8.67109 4.65801C8.67109 4.46367 8.59362 4.27728 8.45601 4.14024L4.52925 0.212441C4.24424 -0.0708135 3.78412 -0.0708135 3.4991 0.212441L3.49881 0.212451ZM4.01664 1.76639L6.90777 4.65828L5.09554 6.471C4.74141 6.82522 4.5881 7.31547 4.5777 7.78202C4.56751 8.2484 4.67556 8.7166 4.86353 9.20096C5.23967 10.1698 5.94222 11.2025 6.89695 12.1575C7.85168 13.1125 8.87881 13.8099 9.84737 14.1861C10.3316 14.3741 10.805 14.4877 11.2714 14.4775C11.7378 14.4673 12.2225 14.314 12.5768 13.9596L14.3945 12.1468L17.2316 14.9847L15.3277 16.8946C14.609 17.6135 13.2437 17.768 11.4496 17.1752C9.65551 16.5824 7.55033 15.2603 5.64593 13.3555C3.74158 11.4506 2.41989 9.34489 1.82721 7.55029C1.23453 5.75569 1.38909 4.38985 2.10774 3.6712L4.01664 1.76639Z" fill="white"/>
</svg>
