<svg width="35" height="35" viewBox="0 0 35 35" fill="none" xmlns="http://www.w3.org/2000/svg">
<path d="M32.9583 34.9999C28.7778 34.9999 24.7029 34.0763 20.7336 32.229C16.7644 30.3818 13.2481 27.9189 10.185 24.8402C7.12185 21.7615 4.65889 18.2369 2.79611 14.2663C0.933334 10.2958 0.0012963 6.2209 0 2.04166V1.02083C0 0.664349 0.0324073 0.324073 0.0972221 0H11.4722L13.2708 9.77079L7.72917 15.361C9.09028 17.6944 10.8001 19.8819 12.8586 21.9235C14.9171 23.9652 17.1772 25.7314 19.6389 27.2221L25.2778 21.5833L35 23.5277V34.9026C34.6759 34.9351 34.3356 34.9597 33.9792 34.9765C33.6227 34.9934 33.2824 35.0012 32.9583 34.9999Z" fill="white"/>
</svg>
