<svg width="31" height="31" viewBox="0 0 31 31" fill="none" xmlns="http://www.w3.org/2000/svg">
<g clip-path="url(#clip0_857_1978)">
<path d="M30.6 15.3C30.6 6.85004 23.75 0 15.3 0C6.85004 0 0 6.85004 0 15.3C0 22.9367 5.59499 29.2663 12.9094 30.4141V19.7227H9.02461V15.3H12.9094V11.9292C12.9094 8.09465 15.1936 5.97656 18.6884 5.97656C20.3624 5.97656 22.1133 6.27539 22.1133 6.27539V10.0406H20.184C18.2834 10.0406 17.6906 11.22 17.6906 12.43V15.3H21.934L21.2556 19.7227H17.6906V30.4141C25.005 29.2663 30.6 22.9367 30.6 15.3Z" fill="white"/>
<path d="M21.2554 19.7227L21.9338 15.3H17.6904V12.43C17.6904 11.22 18.2832 10.0406 20.1838 10.0406H22.1131V6.27539C22.1131 6.27539 20.3622 5.97656 18.6882 5.97656C15.1934 5.97656 12.9092 8.09465 12.9092 11.9292V15.3H9.02441V19.7227H12.9092V30.4141C14.4933 30.662 16.1063 30.662 17.6904 30.4141V19.7227H21.2554Z" fill="#1F6478"/>
</g>
<defs>
<clipPath id="clip0_857_1978">
<rect width="30.6" height="30.6" fill="white"/>
</clipPath>
</defs>
</svg>
