<svg width="31" height="31" viewBox="0 0 31 31" fill="none" xmlns="http://www.w3.org/2000/svg">
<g clip-path="url(#clip0_857_1981)">
<mask id="mask0_857_1981" style="mask-type:luminance" maskUnits="userSpaceOnUse" x="0" y="0" width="31" height="31">
<path d="M15.3 30.6C23.75 30.6 30.6 23.75 30.6 15.3C30.6 6.85004 23.75 0 15.3 0C6.85004 0 0 6.85004 0 15.3C0 23.75 6.85004 30.6 15.3 30.6Z" fill="white"/>
</mask>
<g mask="url(#mask0_857_1981)">
<path d="M6.57422 61.918C24.7284 61.918 39.4453 47.2011 39.4453 29.0469C39.4453 10.8927 24.7284 -3.82422 6.57422 -3.82422C-11.58 -3.82422 -26.2969 10.8927 -26.2969 29.0469C-26.2969 47.2011 -11.58 61.918 6.57422 61.918Z" fill="white"/>
</g>
<path d="M19.603 12.1914C20.2632 12.1914 20.7983 11.6562 20.7983 10.9961C20.7983 10.3359 20.2632 9.80078 19.603 9.80078C18.9429 9.80078 18.4077 10.3359 18.4077 10.9961C18.4077 11.6562 18.9429 12.1914 19.603 12.1914Z" fill="white"/>
<path d="M15.3001 11.4746C14.5436 11.4746 13.8041 11.6989 13.175 12.1192C12.546 12.5395 12.0558 13.1369 11.7663 13.8358C11.4768 14.5348 11.401 15.3039 11.5486 16.0458C11.6962 16.7878 12.0605 17.4694 12.5954 18.0043C13.1304 18.5392 13.8119 18.9035 14.5539 19.0511C15.2959 19.1987 16.0649 19.123 16.7639 18.8334C17.4628 18.5439 18.0602 18.0537 18.4805 17.4247C18.9008 16.7956 19.1251 16.0561 19.1251 15.2996C19.1251 14.2852 18.7221 13.3123 18.0048 12.5949C17.2875 11.8776 16.3146 11.4746 15.3001 11.4746ZM15.3001 17.2121C14.9218 17.2121 14.5521 17.0999 14.2376 16.8898C13.9231 16.6796 13.6779 16.381 13.5332 16.0315C13.3884 15.682 13.3506 15.2975 13.4243 14.9265C13.4981 14.5555 13.6803 14.2147 13.9478 13.9473C14.2152 13.6798 14.556 13.4977 14.927 13.4239C15.298 13.3501 15.6825 13.3879 16.032 13.5327C16.3814 13.6774 16.6801 13.9226 16.8903 14.2371C17.1004 14.5516 17.2126 14.9214 17.2126 15.2996C17.2126 15.8068 17.0111 16.2933 16.6524 16.652C16.2938 17.0106 15.8073 17.2121 15.3001 17.2121Z" fill="#1F6478"/>
<path fill-rule="evenodd" clip-rule="evenodd" d="M10.5188 8.60586C9.4626 8.60586 8.60635 9.46211 8.60635 10.5184V20.0809C8.60635 21.1371 9.4626 21.9934 10.5188 21.9934H20.0813C21.1376 21.9934 21.9938 21.1371 21.9938 20.0809V10.5184C21.9938 9.46211 21.1376 8.60586 20.0813 8.60586H10.5188ZM6.69385 10.5184C6.69385 8.40587 8.40636 6.69336 10.5188 6.69336H20.0813C22.1938 6.69336 23.9063 8.40587 23.9063 10.5184V20.0809C23.9063 22.1933 22.1938 23.9059 20.0813 23.9059H10.5188C8.40636 23.9059 6.69385 22.1933 6.69385 20.0809V10.5184Z" fill="#1F6478"/>
</g>
<defs>
<clipPath id="clip0_857_1981">
<rect width="30.6" height="30.6" fill="white"/>
</clipPath>
</defs>
</svg>
