<svg width="31" height="31" viewBox="0 0 31 31" fill="none" xmlns="http://www.w3.org/2000/svg">
<g clip-path="url(#clip0_857_2022)">
<path d="M15.3 0C6.84997 0 0 6.84997 0 15.3C0 23.75 6.84997 30.5999 15.3 30.5999C23.75 30.5999 30.6 23.75 30.6 15.3C30.5999 6.84997 23.7498 0 15.3 0ZM11.2179 22.6968H7.85864V11.844H11.2179V22.6968ZM9.52227 10.4227C8.42517 10.4227 7.53578 9.52608 7.53578 8.42019C7.53578 7.31418 8.42529 6.4176 9.52227 6.4176C10.6192 6.4176 11.5086 7.31418 11.5086 8.42019C11.5087 9.52614 10.6193 10.4227 9.52227 10.4227ZM23.8067 22.6968H20.4638V17C20.4638 15.4375 19.8703 14.5653 18.6348 14.5653C17.2901 14.5653 16.5877 15.4737 16.5877 17V22.6968H13.3658V11.844H16.5877V13.3057C16.5877 13.3057 17.5568 11.5129 19.8581 11.5129C22.1594 11.5129 23.8068 12.9181 23.8068 15.825L23.8067 22.6968Z" fill="white"/>
</g>
<defs>
<clipPath id="clip0_857_2022">
<rect width="30.6" height="30.6" fill="white"/>
</clipPath>
</defs>
</svg>
