<svg width="31" height="31" viewBox="0 0 31 31" fill="none" xmlns="http://www.w3.org/2000/svg">
<g clip-path="url(#clip0_857_2060)">
<path d="M0 15.3015C0.079568 10.959 1.61278 7.33249 4.6027 4.4252C7.59262 1.51791 11.1579 0.039784 15.3015 0C19.7635 0.079568 23.4205 1.6036 26.2697 4.5721C29.1188 7.5406 30.5633 11.1181 30.6031 15.3015C30.5235 19.6043 28.9903 23.2216 26.0004 26.1503C23.0104 29.076 19.4452 30.5602 15.3015 30.6C13.8662 30.6 12.434 30.3797 10.9987 29.942C11.2772 29.5044 11.5557 29.0056 11.8342 28.4486C12.1525 27.7723 12.5503 26.4961 13.0308 24.6232C13.1501 24.106 13.3307 23.4083 13.5694 22.53C13.8479 23.0074 14.3253 23.445 15.0047 23.8459C16.798 24.6814 18.6893 24.6018 20.6815 23.6072C22.7534 22.4106 24.1887 20.5591 24.9843 18.0497C25.7005 15.4209 25.6117 12.9788 24.715 10.7294C23.8184 8.47705 22.2148 6.85509 19.9042 5.85743C16.9969 5.02196 14.1662 5.11071 11.418 6.12673C8.66985 7.14276 6.75716 8.88713 5.67993 11.3568C5.40144 12.2718 5.23312 13.1807 5.17192 14.0774C5.11071 14.9741 5.14131 15.8493 5.26067 16.7062C5.38002 17.5631 5.67993 18.3312 6.15734 19.0076C6.63474 19.6839 7.27435 20.2041 8.07003 20.5622C8.26895 20.6418 8.42808 20.6418 8.54743 20.5622C8.70657 20.4826 8.86571 20.1644 9.02484 19.6074C9.18398 19.0504 9.24518 18.6709 9.2054 18.472C9.16562 18.3924 9.08605 18.2517 8.9667 18.0527C8.13123 16.697 7.84969 15.274 8.13123 13.7806C8.40972 12.2871 9.0279 11.0202 9.98272 9.98578C11.4578 8.66985 13.1807 7.95374 15.1516 7.83438C17.1224 7.71503 18.8086 8.25365 20.2011 9.44717C20.957 10.3224 21.4466 11.3782 21.6639 12.6146C21.8812 13.8509 21.8842 15.0353 21.6639 16.1707C21.4436 17.306 21.0549 18.371 20.4979 19.3687C19.5003 20.9233 18.3251 21.719 16.9725 21.7588C16.1768 21.719 15.528 21.4099 15.0292 20.8315C14.5303 20.2531 14.3804 19.586 14.5824 18.8301C14.6619 18.3924 14.9006 17.5356 15.2985 16.2594C15.6963 14.9833 15.9167 14.0284 15.9564 13.3919C15.8371 11.877 15.1393 11.0997 13.8632 11.0599C12.8655 11.1793 12.1311 11.6292 11.6506 12.4034C11.1701 13.1777 10.9131 14.0682 10.8733 15.0628C10.9926 16.2196 11.1732 17.0153 11.4119 17.4529C10.9743 19.2463 10.6346 20.6816 10.3959 21.7557C10.3163 22.0342 10.096 22.8911 9.73789 24.3264C9.37984 25.7617 9.18092 26.8572 9.14113 27.6131V29.2871C6.31341 27.9712 4.07939 26.0708 2.44824 23.5797C0.817102 21.0886 0 18.3282 0 15.3015Z" fill="white"/>
</g>
<defs>
<clipPath id="clip0_857_2060">
<rect width="30.6" height="30.6" fill="white"/>
</clipPath>
</defs>
</svg>
