<svg width="31" height="31" viewBox="0 0 31 31" fill="none" xmlns="http://www.w3.org/2000/svg">
<path d="M15.3 30.6C23.75 30.6 30.6 23.75 30.6 15.3C30.6 6.85004 23.75 0 15.3 0C6.85004 0 0 6.85004 0 15.3C0 23.75 6.85004 30.6 15.3 30.6Z" fill="white"/>
<path d="M25.5037 15.2996C25.4581 14.0674 24.4236 13.1052 23.1876 13.147C22.64 13.1661 22.1189 13.3904 21.7234 13.767C19.9816 12.5804 17.9355 11.93 15.8324 11.8844L16.825 7.11148L20.0995 7.79985C20.1907 8.64034 20.9438 9.24884 21.7843 9.15756C22.6247 9.06629 23.2332 8.31327 23.142 7.47278C23.0507 6.63228 22.2977 6.02378 21.4572 6.11506C20.9742 6.1645 20.5406 6.44593 20.301 6.86428L16.5511 6.11506C16.2963 6.05801 16.0415 6.21774 15.9845 6.47636C15.9845 6.48016 15.9845 6.48016 15.9845 6.48396L14.8549 11.7931C12.7252 11.8274 10.6525 12.4815 8.88784 13.6757C7.9903 12.8314 6.57553 12.8732 5.73124 13.7746C4.88694 14.6721 4.92878 16.0869 5.83012 16.9312C6.00506 17.0947 6.20663 17.2354 6.43101 17.3343C6.4158 17.5587 6.4158 17.7831 6.43101 18.0075C6.43101 21.4341 10.4243 24.2218 15.3494 24.2218C20.2744 24.2218 24.2677 21.4379 24.2677 18.0075C24.2829 17.7831 24.2829 17.5587 24.2677 17.3343C25.0359 16.9502 25.5189 16.1591 25.5037 15.2996ZM10.2037 16.8323C10.2037 15.988 10.8921 15.2996 11.7364 15.2996C12.5807 15.2996 13.269 15.988 13.269 16.8323C13.269 17.6766 12.5807 18.3649 11.7364 18.3649C10.8883 18.3573 10.2037 17.6766 10.2037 16.8323ZM19.0916 21.0385C18.0039 21.8562 16.6728 22.2746 15.3113 22.2175C13.9498 22.2746 12.6187 21.8562 11.531 21.0385C11.3865 20.8636 11.4131 20.6012 11.5881 20.4567C11.7402 20.3312 11.957 20.3312 12.1129 20.4567C13.0332 21.1298 14.1552 21.4721 15.2961 21.4189C16.4371 21.4797 17.5628 21.1526 18.4945 20.4871C18.6619 20.3236 18.9357 20.3274 19.0992 20.4947C19.2628 20.662 19.259 20.9359 19.0916 21.0994V21.0385ZM18.8178 18.4182C17.9735 18.4182 17.2852 17.7298 17.2852 16.8855C17.2852 16.0412 17.9735 15.3529 18.8178 15.3529C19.6621 15.3529 20.3505 16.0412 20.3505 16.8855C20.3847 17.7298 19.7268 18.441 18.8825 18.4752C18.8558 18.4752 18.833 18.4752 18.8064 18.4752L18.8178 18.4182Z" fill="#1F6478"/>
</svg>
