<svg width="31" height="31" viewBox="0 0 31 31" fill="none" xmlns="http://www.w3.org/2000/svg">
<g clip-path="url(#clip0_857_2019)">
<path d="M15.3004 30.5997C23.7502 30.5997 30.6002 23.7497 30.6002 15.2999C30.6002 6.84998 23.7502 0 15.3004 0C6.85047 0 0.000488281 6.84998 0.000488281 15.2999C0.000488281 23.7497 6.85047 30.5997 15.3004 30.5997Z" fill="white"/>
<path d="M24.6721 10.9962C24.0046 11.292 23.2965 11.4858 22.5715 11.5714C23.3353 11.1146 23.9069 10.3957 24.1798 9.54853C23.4619 9.9745 22.6765 10.2746 21.8574 10.4357C21.5152 10.0707 21.1016 9.77989 20.6423 9.5813C20.183 9.38271 19.6878 9.28058 19.1874 9.28125C17.168 9.28125 15.5303 10.919 15.5303 12.9384C15.5303 13.225 15.5627 13.504 15.6255 13.7718C12.5861 13.6194 9.89122 12.1635 8.08735 9.95027C7.76207 10.5084 7.59112 11.143 7.59206 11.789C7.59206 13.0575 8.23817 14.1774 9.21892 14.833C8.63813 14.8151 8.07012 14.6581 7.56261 14.3751L7.56233 14.4215C7.56233 16.1934 8.82346 17.6714 10.4961 18.0071C10.1822 18.0928 9.85824 18.136 9.53284 18.1356C9.29665 18.1356 9.06783 18.1129 8.84473 18.0704C9.31002 19.523 10.6603 20.5804 12.261 20.6101C10.9655 21.6269 9.36552 22.1783 7.71861 22.1756C7.42406 22.1756 7.13223 22.1584 6.84668 22.1243C8.51852 23.1992 10.4646 23.7697 12.4522 23.7675C19.1789 23.7675 22.8576 18.195 22.8576 13.3619C22.8576 13.2034 22.854 13.0455 22.8469 12.889C23.5632 12.3718 24.1813 11.7308 24.6721 10.9962Z" fill="#1F6478"/>
</g>
<defs>
<clipPath id="clip0_857_2019">
<rect width="30.6" height="30.6" fill="white"/>
</clipPath>
</defs>
</svg>
