<svg width="31" height="31" viewBox="0 0 31 31" fill="none" xmlns="http://www.w3.org/2000/svg">
<path d="M29.3249 12.3806C29.388 10.5556 28.9889 8.74431 28.1647 7.11483C27.6055 6.44622 26.8294 5.99501 25.9717 5.83983C22.424 5.51793 18.8617 5.38599 15.2999 5.44458C11.7511 5.38333 8.20162 5.51101 4.66641 5.82708C3.96748 5.95422 3.32067 6.28206 2.80491 6.77058C1.65741 7.82883 1.52991 9.63933 1.40241 11.1693C1.21743 13.9202 1.21743 16.6804 1.40241 19.4313C1.4393 20.2925 1.56752 21.1473 1.78491 21.9813C1.93865 22.6253 2.24968 23.2211 2.69016 23.7153C3.20943 24.2297 3.8713 24.5762 4.58991 24.7098C7.33871 25.0491 10.1084 25.1897 12.8774 25.1306C17.3399 25.1943 21.2542 25.1306 25.8824 24.7736C26.6187 24.6482 27.2992 24.3013 27.8332 23.7791C28.1901 23.422 28.4567 22.9849 28.6109 22.5041C29.0669 21.1049 29.2908 19.6406 29.2739 18.1691C29.3249 17.4551 29.3249 13.1456 29.3249 12.3806ZM12.4184 18.9341V11.0418L19.9664 15.0071C17.8499 16.1801 15.0577 17.5061 12.4184 18.9341Z" fill="white"/>
</svg>
